<?xml version="1.0" standalone="no"?>
<!DOCTYPE svg PUBLIC "-//W3C//DTD SVG 20010904//EN"
 "http://www.w3.org/TR/2001/REC-SVG-20010904/DTD/svg10.dtd">
<svg version="1.0" xmlns="http://www.w3.org/2000/svg"
 width="512.000000pt" height="512.000000pt" viewBox="0 0 512.000000 512.000000"
 preserveAspectRatio="xMidYMid meet">

<g transform="translate(0.000000,512.000000) scale(0.100000,-0.100000)"
fill="#000000" stroke="none">
<path d="M1454 2959 l-182 -181 -207 166 c-224 179 -248 191 -281 141 -10 -15
-14 -34 -10 -47 3 -13 67 -99 142 -193 75 -93 148 -185 162 -203 l25 -33 -181
-183 c-131 -131 -182 -189 -182 -205 0 -29 155 -191 182 -191 30 0 21 22 -33
76 -41 41 -47 53 -36 62 10 9 24 1 62 -38 27 -28 55 -50 62 -50 26 0 12 36
-34 82 -37 38 -45 50 -35 60 10 10 23 1 65 -40 39 -39 56 -49 67 -42 12 8 5
19 -39 64 -47 48 -53 57 -41 71 12 14 19 10 67 -37 41 -41 55 -50 65 -40 10
10 1 24 -40 65 -47 48 -51 55 -37 67 14 11 22 7 63 -33 47 -46 72 -58 72 -35
0 7 -21 34 -47 60 -37 38 -45 50 -35 60 10 10 22 2 60 -35 46 -46 82 -60 82
-34 0 7 -22 35 -50 62 -39 38 -47 52 -38 62 9 11 21 4 64 -38 47 -47 74 -56
74 -26 0 6 -21 33 -47 59 -38 38 -45 50 -35 60 9 9 15 10 20 2 4 -6 47 -61 95
-122 86 -109 88 -112 74 -139 -36 -71 -28 -139 24 -198 36 -41 86 -59 145 -52
52 5 83 24 120 73 22 29 28 47 28 90 l1 54 51 0 c89 0 154 61 162 153 10 124
-104 214 -219 172 -24 -9 -49 -17 -55 -17 -5 -1 -63 41 -127 92 -94 75 -114
96 -105 107 9 12 21 4 65 -39 41 -41 55 -50 65 -40 10 10 1 24 -40 65 -47 48
-51 55 -37 67 14 12 23 6 68 -38 42 -41 55 -50 65 -40 10 10 1 23 -39 64 -47
48 -56 74 -25 74 6 0 32 -20 56 -45 43 -44 70 -57 70 -33 0 7 -23 35 -51 64
-41 42 -48 53 -36 62 12 10 24 2 66 -38 28 -27 56 -50 61 -50 24 0 6 38 -37
82 -37 38 -45 50 -35 60 10 10 22 2 60 -35 26 -26 53 -47 60 -47 23 0 11 25
-35 72 -40 41 -44 49 -33 63 12 14 19 11 64 -34 29 -28 57 -51 64 -51 24 0 11
25 -39 76 -45 45 -48 52 -34 64 14 12 23 6 70 -40 46 -45 55 -51 61 -36 10 25
-150 186 -185 186 -19 0 -70 -45 -207 -181z m237 125 c11 -13 -11 -39 -163
-191 -165 -165 -176 -174 -197 -162 -11 8 -21 16 -21 20 0 10 345 349 356 349
6 0 17 -7 25 -16z m-462 -319 c187 -148 340 -273 341 -277 0 -3 -30 -10 -66
-13 l-66 -8 -302 303 c-165 167 -289 294 -274 284 15 -10 180 -140 367 -289z
m296 -326 c69 8 106 18 127 32 88 63 211 3 211 -103 0 -78 -52 -128 -135 -128
-33 0 -55 8 -96 37 -64 44 -127 54 -186 29 -22 -9 -40 -15 -41 -14 -68 86
-564 711 -579 728 -11 14 120 -114 291 -284 l311 -309 97 12z m-374 110 c10
-20 -4 -37 -162 -195 -174 -174 -174 -174 -194 -154 l-20 20 175 175 c96 96
178 175 182 175 4 0 12 -10 19 -21z m430 -284 c120 -62 71 -245 -66 -245 -106
0 -166 118 -107 208 32 50 114 67 173 37z"/>
<path d="M1669 2431 c-56 -56 -27 -145 52 -157 66 -11 128 70 98 128 -32 64
-102 77 -150 29z m106 -31 c15 -16 17 -26 9 -47 -13 -37 -37 -49 -71 -37 -22
7 -29 17 -31 42 -2 18 2 40 9 48 17 20 63 17 84 -6z"/>
<path d="M1487 2385 c-8 -18 11 -31 25 -17 11 11 3 32 -12 32 -4 0 -10 -7 -13
-15z"/>
<path d="M1493 2242 c-31 -5 -73 -58 -73 -93 0 -88 135 -126 175 -49 40 78
-16 156 -102 142z m55 -48 c32 -22 27 -73 -9 -93 -24 -13 -29 -13 -53 2 -34
22 -36 69 -4 91 28 20 38 20 66 0z"/>
<path d="M3714 2936 c-3 -8 -22 -17 -42 -21 -94 -17 -146 -76 -122 -137 19
-47 28 -57 81 -83 60 -31 99 -77 99 -118 0 -74 -82 -166 -148 -167 -35 0 -62
18 -62 41 0 11 -4 17 -10 14 -16 -10 -12 5 11 41 22 36 35 45 25 17 -6 -16 -6
-16 12 0 10 9 29 17 42 17 19 0 21 2 9 16 -7 8 -24 21 -38 28 -24 13 -28 11
-51 -15 -14 -16 -30 -46 -36 -66 -10 -36 -37 -63 -49 -51 -16 16 -7 98 17 149
27 59 26 74 -3 89 -14 8 -27 6 -49 -5 -34 -18 -36 -11 -14 45 19 48 13 70 -20
70 -18 0 -30 -9 -41 -30 -19 -36 -19 -55 0 -83 13 -21 12 -27 -11 -72 -31 -60
-105 -135 -133 -135 -40 0 -25 44 34 104 30 30 55 61 55 70 0 38 -58 59 -101
36 -22 -12 -69 -82 -69 -104 0 -7 -7 -20 -17 -27 -15 -13 -15 -12 -5 8 31 56
-10 121 -68 110 l-31 -7 7 38 c4 20 11 47 15 60 15 39 10 78 -11 97 -18 17
-22 17 -36 3 -8 -8 -23 -53 -33 -99 -34 -152 -59 -238 -80 -273 -22 -35 -46
-50 -62 -40 -18 10 -9 83 18 144 l26 61 -20 21 c-19 19 -22 19 -50 4 -17 -8
-33 -13 -36 -10 -3 3 2 25 10 48 18 49 13 76 -16 76 -42 0 -66 -76 -39 -120
11 -17 9 -28 -16 -73 -37 -67 -74 -117 -87 -117 -6 0 -7 4 -4 10 16 26 31 110
21 120 -24 24 -46 9 -77 -55 -31 -61 -59 -85 -59 -50 0 41 61 125 91 125 29 0
31 18 5 35 -41 27 -96 -3 -144 -79 l-26 -41 -10 33 c-5 18 -22 42 -38 53 l-28
20 30 25 c28 24 50 76 50 117 0 29 -57 77 -92 77 -41 0 -86 -25 -107 -61 l-19
-30 -6 25 c-8 33 -40 34 -61 3 -13 -20 -14 -49 -10 -166 6 -139 6 -143 33
-166 15 -14 32 -25 38 -25 18 0 25 45 18 100 l-7 50 38 16 c54 22 85 7 85 -41
0 -51 -13 -70 -68 -101 -60 -35 -122 -93 -122 -116 0 -10 11 -25 25 -34 29
-19 64 -13 106 17 15 10 33 19 41 19 7 0 27 7 43 16 20 11 54 16 100 15 102
-1 295 -54 295 -80 0 -18 26 -12 45 9 17 19 17 21 1 39 -10 11 -50 29 -88 41
-61 18 -90 21 -214 18 -128 -3 -141 -1 -129 12 8 9 22 33 31 55 14 35 17 37
26 20 29 -54 77 -60 107 -12 17 27 21 29 21 11 0 -22 28 -54 48 -54 16 0 77
76 109 136 19 36 34 54 47 54 14 0 17 -5 12 -22 -25 -88 -28 -125 -12 -157 20
-37 58 -56 86 -41 10 5 30 25 44 42 14 18 26 28 26 21 0 -7 8 -17 19 -22 17
-9 21 -3 41 58 26 82 71 143 91 123 22 -20 -9 -91 -51 -120 -19 -13 -37 -28
-38 -33 -6 -16 19 -39 43 -39 22 0 97 44 103 61 7 17 18 9 19 -13 4 -51 70
-73 119 -41 30 19 96 105 120 156 12 26 21 33 35 30 23 -6 22 -2 4 -46 -43
-103 10 -211 85 -172 26 13 30 13 30 1 0 -8 14 -26 31 -40 79 -67 241 -5 285
109 32 86 3 149 -104 220 -119 80 -120 81 -71 116 42 30 94 40 116 24 15 -11
16 -16 5 -27 -11 -11 -15 -10 -23 2 -9 13 -10 13 -6 0 7 -26 50 -18 65 13 17
36 8 64 -28 82 -36 18 -39 19 -46 1z m-1447 -108 c43 -40 21 -143 -36 -172
-47 -25 -51 -21 -51 43 0 64 12 105 37 133 20 23 22 22 50 -4z m435 -110 c-8
-8 -9 -4 -5 13 4 13 8 18 11 10 2 -7 -1 -18 -6 -23z m659 5 c-8 -15 -10 -15
-11 -2 0 17 10 32 18 25 2 -3 -1 -13 -7 -23z m-151 -117 l-23 -21 19 33 c10
18 20 28 23 21 2 -6 -7 -21 -19 -33z m-981 -170 c-29 -41 -93 -85 -106 -73
-11 11 19 47 69 80 29 20 57 36 61 37 5 0 -6 -20 -24 -44z"/>
<path d="M3918 2803 c-68 -154 -92 -362 -36 -315 17 14 45 70 52 104 3 15 18
40 32 55 14 15 23 23 20 16 -15 -29 -25 -115 -16 -138 13 -35 55 -43 84 -16
26 25 36 26 36 7 0 -19 47 -56 71 -56 9 0 30 11 46 24 15 13 37 26 49 30 l21
6 -17 -87 c-18 -92 -17 -113 5 -113 25 0 44 31 57 90 11 56 13 58 32 44 49
-34 87 -9 184 120 32 44 27 56 -8 16 l-29 -35 -1 31 c0 55 -69 96 -100 59 -15
-19 -30 -19 -30 -2 0 13 -30 47 -42 47 -3 0 -10 -24 -17 -54 -7 -30 -21 -66
-32 -80 -22 -28 -42 -35 -33 -11 11 27 -5 65 -26 65 -23 0 -28 -37 -10 -70 8
-15 6 -24 -10 -40 -31 -31 -45 -20 -44 34 0 53 24 84 76 102 l32 10 -22 22
c-32 32 -74 28 -111 -9 -17 -17 -34 -43 -38 -57 -8 -36 -32 -71 -56 -84 -18
-9 -19 -8 -13 13 33 108 37 131 25 145 -17 20 -62 17 -93 -7 l-26 -21 10 26
c5 15 17 41 27 59 18 35 19 83 1 104 -18 22 -28 15 -50 -34z m522 -190 c-1
-44 -22 -80 -62 -107 l-36 -24 5 36 c8 51 58 122 85 122 4 0 8 -12 8 -27z
m-213 -55 c-3 -8 -6 -5 -6 6 -1 11 2 17 5 13 3 -3 4 -12 1 -19z"/>
<path d="M2676 2573 c-6 -14 -5 -15 5 -6 7 7 10 15 7 18 -3 3 -9 -2 -12 -12z"/>
<path d="M3335 2579 c-4 -6 -5 -12 -2 -15 2 -3 7 2 10 11 7 17 1 20 -8 4z"/>
<path d="M3090 2429 c-128 -8 -188 -17 -197 -32 -4 -7 0 -8 12 -3 10 3 68 6
129 7 142 0 275 -32 329 -79 16 -14 20 -13 43 9 l25 24 -28 22 c-15 13 -35 23
-44 23 -9 0 -34 6 -55 13 -58 21 -98 24 -214 16z"/>
</g>
</svg>
